<svg width="28" height="28" viewBox="0 0 28 28" fill="none" xmlns="http://www.w3.org/2000/svg">
<path d="M10.9813 15.1797H12.95C13.475 15.1797 13.9125 14.7422 13.9125 14.2172C13.9125 13.6922 13.475 13.2547 12.95 13.2547H12.6875C12.6438 12.7734 12.2063 12.3359 11.725 12.3359C11.2 12.3359 10.7625 12.7297 10.7625 13.2547C9.7563 13.3859 8.92505 14.2172 8.92505 15.2672C8.92505 16.4047 9.8438 17.2797 10.9813 17.2797H11.9C11.9438 17.2797 11.9875 17.3234 11.9875 17.3234C11.9875 17.3234 11.9438 17.3672 11.9 17.3672H9.9313C9.4063 17.3672 8.9688 17.8047 8.9688 18.3297C8.9688 18.8547 9.4063 19.2922 9.9313 19.2922H10.7625C10.8063 19.7734 11.2438 20.2109 11.725 20.2109C12.25 20.2109 12.6875 19.7734 12.6875 19.2484V19.1609C13.3875 18.8547 13.9125 18.1547 13.9125 17.3234C13.9125 16.1859 12.9938 15.3109 11.8563 15.3109H10.9375C10.8938 15.3109 10.85 15.2672 10.85 15.2672C10.85 15.2672 10.9375 15.1797 10.9813 15.1797Z" fill="#465FFF"/>
<path d="M24.9375 4.28516H8.22504C6.73754 4.28516 5.51254 5.51016 5.51254 6.99766V8.87891H3.06254C1.57504 8.87891 0.350037 10.1039 0.350037 11.5914V20.9977C0.350037 22.4852 1.57504 23.7102 3.06254 23.7102H19.775C21.2625 23.7102 22.4875 22.4852 22.4875 20.9977V19.1164H24.9375C26.425 19.1164 27.65 17.8914 27.65 16.4039V6.99766C27.6938 5.51016 26.425 4.28516 24.9375 4.28516ZM20.5625 20.9977C20.5625 21.4352 20.2125 21.7852 19.775 21.7852H3.06254C2.62504 21.7852 2.27504 21.4352 2.27504 20.9977V11.6352C2.27504 11.1977 2.62504 10.8477 3.06254 10.8477H19.775C20.2125 10.8477 20.5625 11.1977 20.5625 11.6352V20.9977ZM25.725 16.3602C25.725 16.7977 25.375 17.1477 24.9375 17.1477H22.5313V11.6352C22.5313 10.1477 21.3063 8.92266 19.8188 8.92266H7.43754V6.99766C7.43754 6.56016 7.78754 6.21016 8.22504 6.21016H24.9375C25.375 6.21016 25.725 6.56016 25.725 6.99766V16.3602Z" fill="#465FFF"/>
<path d="M6.47509 15.3516H4.98759C4.46259 15.3516 4.02509 15.7891 4.02509 16.3141C4.02509 16.8391 4.46259 17.2766 4.98759 17.2766H6.47509C7.00009 17.2766 7.43759 16.8391 7.43759 16.3141C7.43759 15.7891 7.00009 15.3516 6.47509 15.3516Z" fill="#465FFF"/>
<path d="M18.2876 15.3516H16.8001C16.2751 15.3516 15.8376 15.7891 15.8376 16.3141C15.8376 16.8391 16.2751 17.2766 16.8001 17.2766H18.2876C18.8126 17.2766 19.2501 16.8391 19.2501 16.3141C19.2501 15.7891 18.8126 15.3516 18.2876 15.3516Z" fill="#465FFF"/>
</svg>
