<svg width="28" height="28" viewBox="0 0 28 28" fill="none" xmlns="http://www.w3.org/2000/svg">
<path d="M26.25 16.7586C26.25 14.7461 24.6313 13.1273 22.6188 13.1273C20.6063 13.1273 18.9875 14.7461 18.9875 16.7586C18.9875 18.4211 20.125 19.8211 21.6125 20.2148V24.1523C21.6125 24.7648 21.1313 25.2461 20.5188 25.2461H19.1188C18.5063 25.2461 18.025 24.7648 18.025 24.1523V21.8773C18.025 20.1711 16.6688 18.8148 14.9625 18.8148H14.875C13.1688 18.8148 11.8125 20.1711 11.8125 21.8773V22.0086C11.8125 22.6211 11.3313 23.1023 10.7188 23.1023C10.1063 23.1023 9.625 22.6211 9.625 22.0086V17.1961C12.95 16.7148 15.5313 13.8273 15.5313 10.3711V4.50859C15.5313 3.15234 14.4375 2.05859 13.0813 2.05859H12.6875V1.75234C12.6875 1.22734 12.25 0.746094 11.6813 0.746094C11.1125 0.746094 10.675 1.18359 10.675 1.75234V4.33359C10.675 4.85859 11.1125 5.33984 11.6813 5.33984C12.25 5.33984 12.6875 4.90234 12.6875 4.33359V4.02734H13.125C13.3875 4.02734 13.6063 4.24609 13.6063 4.50859V10.3711C13.6063 13.0836 11.375 15.3148 8.6625 15.3148C5.95 15.3148 3.71875 13.0836 3.71875 10.3711V4.50859C3.71875 4.24609 3.9375 4.02734 4.2 4.02734H4.50625V4.33359C4.50625 4.85859 4.94375 5.33984 5.5125 5.33984C6.08125 5.33984 6.51875 4.90234 6.51875 4.33359V1.75234C6.51875 1.22734 6.08125 0.746094 5.5125 0.746094C4.94375 0.746094 4.50625 1.18359 4.50625 1.75234V2.05859H4.2C2.84375 2.05859 1.75 3.15234 1.75 4.50859V10.3711C1.75 13.8273 4.33125 16.7148 7.65625 17.1961V22.0086C7.65625 23.7148 9.0125 25.0711 10.7188 25.0711C12.425 25.0711 13.7813 23.7148 13.7813 22.0086V21.8773C13.7813 21.2648 14.2625 20.7836 14.875 20.7836H14.9625C15.575 20.7836 16.0563 21.2648 16.0563 21.8773V24.1961C16.0563 25.9023 17.4125 27.2586 19.1188 27.2586H20.5188C22.225 27.2586 23.5813 25.9023 23.5813 24.1961V20.2586C25.1125 19.8211 26.25 18.4211 26.25 16.7586ZM22.6188 18.4211C21.7 18.4211 20.9563 17.6773 20.9563 16.7586C20.9563 15.8398 21.7 15.0961 22.6188 15.0961C23.5375 15.0961 24.2813 15.8398 24.2813 16.7586C24.2813 17.6773 23.5375 18.4211 22.6188 18.4211Z" fill="#465FFF"/>
</svg>
