<svg width="28" height="28" viewBox="0 0 28 28" fill="none" xmlns="http://www.w3.org/2000/svg">
<path d="M21.0875 4.76641H19.8625C19.6438 3.84766 18.8125 3.19141 17.8063 3.19141H17.2813C16.9313 1.66016 15.575 0.566406 13.9563 0.566406C12.3375 0.566406 10.9813 1.70391 10.6313 3.19141H10.1063C9.1 3.19141 8.3125 3.89141 8.05 4.76641H6.825C5.3375 4.76641 4.15625 5.94766 4.15625 7.43516V24.7602C4.15625 26.2477 5.3375 27.4289 6.825 27.4289H21.0438C22.5313 27.4289 23.7125 26.2477 23.7125 24.7602V7.47891C23.8 5.99141 22.575 4.76641 21.0875 4.76641ZM10.0188 5.29141C10.0188 5.20391 10.0625 5.16016 10.15 5.16016H11.55C12.075 5.16016 12.5563 4.72266 12.5563 4.15391V3.97891C12.5563 3.19141 13.2125 2.53516 14 2.53516C14.7875 2.53516 15.4438 3.19141 15.4438 3.97891V4.19766C15.4438 4.72266 15.8813 5.20391 16.45 5.20391H17.85C17.9375 5.20391 17.9813 5.24766 17.9813 5.33516V6.38516C17.9813 6.47266 17.9375 6.51641 17.85 6.51641H10.15C10.0625 6.51641 10.0188 6.47266 10.0188 6.38516V5.29141ZM21.8313 24.7602C21.8313 25.1539 21.525 25.4602 21.1313 25.4602H6.9125C6.51875 25.4602 6.2125 25.1539 6.2125 24.7602V7.47891C6.2125 7.08516 6.51875 6.77891 6.9125 6.77891H8.09375C8.26875 7.74141 9.14375 8.48516 10.15 8.48516H17.85C18.9 8.48516 19.7313 7.74141 19.9063 6.77891H21.0875C21.4813 6.77891 21.7875 7.08516 21.7875 7.47891V24.7602H21.8313Z" fill="#465FFF"/>
<path d="M15.8375 15.8375H15.0063V15.0062C15.0063 14.4812 14.5688 14 14 14C13.475 14 12.9938 14.4375 12.9938 15.0062V15.8375H12.1625C11.6375 15.8375 11.1563 16.275 11.1563 16.8438C11.1563 17.4125 11.5938 17.85 12.1625 17.85H12.9938V18.6813C12.9938 19.2063 13.4313 19.6875 14 19.6875C14.525 19.6875 15.0063 19.25 15.0063 18.6813V17.85H15.8375C16.3625 17.85 16.8438 17.4125 16.8438 16.8438C16.8438 16.275 16.3625 15.8375 15.8375 15.8375Z" fill="#465FFF"/>
<path d="M14 10.8477C10.7187 10.8477 8.04999 13.5164 8.04999 16.7977C8.04999 20.0789 10.7187 22.7477 14 22.7477C17.2812 22.7477 19.95 20.0789 19.95 16.7977C19.95 13.5164 17.2812 10.8477 14 10.8477ZM14 20.8227C11.8125 20.8227 10.0187 19.0289 10.0187 16.8414C10.0187 14.6539 11.8125 12.8602 14 12.8602C16.1875 12.8602 17.9812 14.6539 17.9812 16.8414C17.9812 19.0289 16.1875 20.8227 14 20.8227Z" fill="#465FFF"/>
</svg>
